# SSTK version 0.8.0
# 1
mtllib original-1.mtl
o #ID4
v -0.411595 -0.477069 -0.048131
v -0.397887 -0.459527 0.156481
v -0.418259 -0.468221 0.055074
v -0.378349 -0.485468 -0.146101
v -0.351866 -0.451580 0.249179
v -0.320787 -0.492845 -0.232159
v -0.283334 -0.444921 0.326850
v -0.242830 -0.498699 -0.300441
v -0.196960 -0.440004 0.384203
v -0.149792 -0.502630 -0.346293
v -0.098631 -0.437165 0.417327
v -0.048013 -0.504370 -0.366591
v 0.004953 -0.436595 0.423967
v 0.055570 -0.503801 -0.359952
v 0.106732 -0.438336 0.403669
v 0.153899 -0.500961 -0.326827
v 0.199769 -0.442267 0.357816
v 0.240273 -0.496044 -0.269475
v 0.277726 -0.448120 0.289534
v 0.308806 -0.489386 -0.191803
v 0.335289 -0.455498 0.203476
v 0.354826 -0.481439 -0.099105
v 0.368535 -0.463897 0.105506
v 0.375199 -0.472745 0.002301
v 0.375199 -0.472745 0.002301
v 0.354826 -0.481439 -0.099105
v 0.368535 -0.463897 0.105506
v 0.335289 -0.455498 0.203476
v 0.308806 -0.489386 -0.191803
v 0.277726 -0.448120 0.289534
v 0.240273 -0.496044 -0.269475
v 0.199769 -0.442267 0.357816
v 0.153899 -0.500961 -0.326827
v 0.106732 -0.438336 0.403669
v 0.055570 -0.503801 -0.359952
v 0.004953 -0.436595 0.423967
v -0.048013 -0.504370 -0.366591
v -0.098631 -0.437165 0.417327
v -0.149792 -0.502630 -0.346293
v -0.196960 -0.440004 0.384203
v -0.242830 -0.498699 -0.300441
v -0.283334 -0.444921 0.326850
v -0.320787 -0.492845 -0.232159
v -0.351866 -0.451580 0.249179
v -0.378349 -0.485468 -0.146101
v -0.397887 -0.459527 0.156481
v -0.411595 -0.477069 -0.048131
v -0.418259 -0.468221 0.055074
v -0.397887 -0.481697 0.158381
v -0.351866 -0.473750 0.251079
v -0.397887 -0.481697 0.158381
v -0.351866 -0.473750 0.251079
v -0.418259 -0.490391 0.056975
v -0.418259 -0.490391 0.056975
v -0.411595 -0.499239 -0.046230
v -0.411595 -0.499239 -0.046230
v -0.378349 -0.507638 -0.144200
v -0.378349 -0.507638 -0.144200
v -0.320787 -0.515016 -0.230258
v -0.320787 -0.515016 -0.230258
v -0.242830 -0.520869 -0.298540
v -0.242830 -0.520869 -0.298540
v -0.149792 -0.524800 -0.344392
v -0.149792 -0.524800 -0.344392
v -0.048013 -0.526541 -0.364691
v -0.048013 -0.526541 -0.364691
v 0.055570 -0.525971 -0.358051
v 0.055570 -0.525971 -0.358051
v 0.153899 -0.523132 -0.324926
v 0.153899 -0.523132 -0.324926
v 0.240273 -0.518215 -0.267574
v 0.240273 -0.518215 -0.267574
v 0.308806 -0.511556 -0.189902
v 0.308806 -0.511556 -0.189902
v 0.354826 -0.503609 -0.097205
v 0.354826 -0.503609 -0.097205
v 0.375199 -0.494915 0.004202
v 0.375199 -0.494915 0.004202
v 0.368535 -0.486067 0.107407
v 0.368535 -0.486067 0.107407
v 0.335289 -0.477668 0.205377
v 0.335289 -0.477668 0.205377
v 0.277726 -0.470291 0.291435
v 0.277726 -0.470291 0.291435
v 0.199769 -0.464437 0.359717
v 0.199769 -0.464437 0.359717
v 0.106732 -0.460506 0.405569
v 0.106732 -0.460506 0.405569
v 0.004953 -0.458766 0.425867
v 0.004953 -0.458766 0.425867
v -0.098631 -0.459335 0.419228
v -0.098631 -0.459335 0.419228
v -0.196960 -0.462175 0.386103
v -0.196960 -0.462175 0.386103
v -0.283334 -0.467092 0.328751
v -0.283334 -0.467092 0.328751
vt -0.3956404 0.7096131
vt -0.4158503 0.4068595
vt -0.3858162 0.556906
vt -0.4446533 0.8545742
vt -0.4836959 0.2696991
vt -0.5295149 0.9819104
vt -0.5847295 0.1547722
vt -0.6444419 1.082944
vt -0.7120657 0.06991061
vt -0.7816022 1.15079
vt -0.8570268 0.02089768
vt -0.9316487 1.180824
vt -1.009734 0.01107352
vt -1.084356 1.170999
vt -1.15978 0.04110763
vt -1.229317 1.121987
vt -1.296941 0.1089532
vt -1.356653 1.037125
vt -1.411868 0.2099868
vt -1.457687 0.922198
vt -1.496729 0.3373229
vt -1.525532 0.7850377
vt -1.545742 0.482284
vt -1.555566 0.6349912
vt 0.1803089 -0.02843395
vt 0.02728604 -2.63164e-16
vt 0.02728604 -0.02843395
vt 0.1803089 0
vt 0.3173261 -0.02843395
vt 0.4703489 -2.63164e-16
vt 0.3173261 0
vt 0.4703489 -0.02843395
vt 0.7335495 -0.02843395
vt 0.5805267 -2.63164e-16
vt 0.5805267 -0.02843395
vt 0.7335495 0
vt 0.9519741 -0.02843395
vt 0.7989513 -5.594084e-19
vt 0.7989513 -0.02843395
vt 0.9519741 -5.594084e-19
vt 1.110737 -0.02843395
vt 0.9577145 0
vt 0.9577145 -0.02843395
vt 1.110737 0
vt 1.19902 -2.63164e-16
vt 1.045997 -0.02843395
vt 1.19902 -0.02843395
vt 1.045997 0
vt 1.210805 -2.63164e-16
vt 1.057782 -0.02843395
vt 1.210805 -0.02843395
vt 1.057782 -2.63164e-16
vt 1.14529 1.479022e-17
vt 0.9922675 -0.02843395
vt 1.14529 -0.02843395
vt 0.9922675 -2.483738e-16
vt 1.00694 -2.63164e-16
vt 0.8539171 -0.02843395
vt 1.00694 -0.02843395
vt 0.8539171 0
vt 0.8051823 -2.209622e-17
vt 0.6521595 -0.02843395
vt 0.8051823 -0.02843395
vt 0.6521595 -2.852602e-16
vt 0.5537671 2.450457e-17
vt 0.4007442 -0.02843395
vt 0.5537671 -0.02843395
vt 0.4007442 2.450457e-17
vt 0.1168048 0
vt 0.2698276 -0.02843395
vt 0.2698276 0
vt 0.1168048 -0.02843395
vt -0.1803089 1.301128e-17
vt -0.02728604 -0.02843395
vt -0.02728604 1.301128e-17
vt -0.1803089 -0.02843395
vt -0.3173261 -2.63164e-16
vt -0.4703489 -0.02843395
vt -0.3173261 -0.02843395
vt -0.4703489 0
vt -0.5805267 0
vt -0.7335495 -0.02843395
vt -0.5805267 -0.02843395
vt -0.7335495 -2.63164e-16
vt -0.9519741 9.934734e-18
vt -0.7989513 -0.02843395
vt -0.7989513 -2.532292e-16
vt -0.9519741 -0.02843395
vt -1.110737 -2.551362e-16
vt -0.9577145 -0.02843395
vt -0.9577145 8.027816e-18
vt -1.110737 -0.02843395
vt -1.045997 1.174842e-17
vt -1.19902 -0.02843395
vt -1.045997 -0.02843395
vt -1.19902 1.174842e-17
vt -1.057782 -2.63164e-16
vt -1.210805 -0.02843395
vt -1.057782 -0.02843395
vt -1.210805 0
vt -0.9922675 0
vt -1.14529 -0.02843395
vt -0.9922675 -0.02843395
vt -1.14529 -2.63164e-16
vt -0.8539171 -0.02843395
vt -1.00694 0
vt -1.00694 -0.02843395
vt -0.8539171 0
vt -0.6521595 -4.464387e-18
vt -0.8051823 -0.02843395
vt -0.6521595 -0.02843395
vt -0.8051823 -4.464387e-18
vt -0.4007442 6.872741e-18
vt -0.5537671 -0.02843395
vt -0.4007442 -0.02843395
vt -0.5537671 6.872741e-18
vt -0.1168048 -0.02843395
vt -0.2698276 0
vt -0.2698276 -0.02843395
vt -0.1168048 -2.63164e-16
vn 0.7655241196563143 -0.6101512889940633 0.20417694963758298
vn 0.7386200592782691 -0.6445772425928487 -0.19738436200258155
vn 0.7786023234998005 -0.627515544952505 0.0016317731682262719
vn 0.7002766900710181 -0.5936678290441902 0.39644806229963736
vn 0.6483020289686059 -0.6601736551961626 -0.3793088770647579
vn 0.5873065762650539 -0.5791884413858706 0.5653421396294694
vn 0.51380332058069 -0.67324190638197 -0.5317438135525674
vn 0.4343124957945989 -0.567699958427125 0.6993492783999331
vn 0.34428973831223886 -0.6828914711003301 -0.644301028084945
vn 0.25172070618449505 -0.5599852542683795 0.7893371909899835
vn 0.15131341556297628 -0.6884646787981689 -0.709309971957254
vn 0.051974634977596815 -0.5565700826230381 0.829173311466264
vn -0.051974634977596815 -0.6895817745329875 -0.7223403723667129
vn -0.15131341556297628 -0.5576871864017955 0.8161429117464141
vn -0.251720706184495 -0.6861666230508523 -0.682504250161835
vn -0.34428973831223886 -0.5632604473432802 0.7511339724386975
vn -0.4343124957945989 -0.6784519503256026 -0.5925163348769826
vn -0.51380332058069 -0.5729100041764541 0.6385767572303206
vn -0.5873065762650539 -0.6669634958534724 -0.45850919366435366
vn -0.6483020289686057 -0.5859783299278201 0.48614182713503695
vn -0.7002766900710181 -0.6524842119833951 -0.28961510743672714
vn -0.7386200592782691 -0.6015747936862181 0.3042173164584
vn -0.7655241196563143 -0.6360007618466516 -0.0973439939333905
vn -0.7786023234998005 -0.6186365111587555 0.10520118298781153
vn 0.7786023234998005 0.6186365111587555 -0.10520118298781153
vn 0.7386200592782691 0.6015747936862181 -0.3042173164584
vn 0.7655241196563143 0.6360007618466516 0.0973439939333905
vn 0.7002766900710181 0.6524842119833951 0.28961510743672714
vn 0.6483020289686057 0.5859783299278201 -0.48614182713503695
vn 0.5873065762650539 0.6669634958534724 0.45850919366435366
vn 0.51380332058069 0.5729100041764541 -0.6385767572303206
vn 0.4343124957945989 0.6784519503256026 0.5925163348769826
vn 0.34428973831223886 0.5632604473432802 -0.7511339724386975
vn 0.251720706184495 0.6861666230508523 0.682504250161835
vn 0.15131341556297628 0.5576871864017955 -0.8161429117464141
vn 0.051974634977596815 0.6895817745329875 0.7223403723667129
vn -0.051974634977596815 0.5565700826230381 -0.829173311466264
vn -0.15131341556297628 0.6884646787981689 0.709309971957254
vn -0.25172070618449505 0.5599852542683795 -0.7893371909899835
vn -0.34428973831223886 0.6828914711003301 0.644301028084945
vn -0.4343124957945989 0.567699958427125 -0.6993492783999331
vn -0.51380332058069 0.67324190638197 0.5317438135525674
vn -0.5873065762650539 0.5791884413858706 -0.5653421396294694
vn -0.6483020289686059 0.6601736551961626 0.3793088770647579
vn -0.7002766900710181 0.5936678290441902 -0.39644806229963736
vn -0.7386200592782691 0.6445772425928487 0.19738436200258155
vn -0.7655241196563143 0.6101512889940633 -0.20417694963758298
vn -0.7786023234998005 0.627515544952505 -0.0016317731682262719
vn 0.6872332915723048 -0.7051381294316483 -0.1746156389798212
vn 0.6031988268981144 -0.7196494850876213 -0.34388340152130054
vn -0.6872332915723048 0.7051381294316483 0.1746156389798212
vn -0.6031988268981144 0.7196494850876213 0.34388340152130054
vn 0.7244339055337181 -0.689263458959837 0.01055465091251559
vn -0.7244339055337181 0.689263458959837 -0.01055465091251559
vn 0.7122655495866663 -0.6731072721958956 0.1990085098406713
vn -0.7122655495866663 0.6731072721958956 -0.1990085098406713
vn 0.6515575267409116 -0.6577705315162207 0.3779030526684525
vn -0.6515575267409116 0.6577705315162207 -0.3779030526684525
vn 0.5464468929495173 -0.6442985332399204 0.535046907523729
vn -0.5464468929495173 0.6442985332399204 -0.535046907523729
vn 0.4040967473727024 -0.633609306980595 0.6597310549537383
vn -0.4040967473727024 0.633609306980595 -0.6597310549537383
vn 0.23420813353547548 -0.6264313172506502 0.7434583747281646
vn -0.23420813353547548 0.6264313172506502 -0.7434583747281646
vn 0.048358689043686946 -0.6232537651541679 0.7805230178637458
vn -0.048358689043686946 0.6232537651541679 -0.7805230178637458
vn -0.14078636373463949 -0.6242931688976848 0.7683991404563544
vn 0.14078636373463949 0.6242931688976848 -0.7683991404563544
vn -0.32033706057355277 -0.6294786293791579 0.7079130050917506
vn 0.32033706057355277 0.6294786293791579 -0.7079130050917506
vn -0.47805731452037403 -0.6384568911314644 0.6031865401352333
vn 0.47805731452037403 0.6384568911314644 -0.6031865401352333
vn -0.6031988268981145 -0.650616036465411 0.4613566389711734
vn 0.6031988268981145 0.650616036465411 -0.4613566389711734
vn -0.6872332915723048 -0.665127423614096 0.2920888791295728
vn 0.6872332915723048 0.665127423614096 -0.2920888791295728
vn -0.724433905533718 -0.681002151781468 0.10691859418349221
vn 0.724433905533718 0.681002151781468 -0.10691859418349221
vn -0.7122655495866663 -0.6971583664166007 -0.08153526235525865
vn 0.7122655495866663 0.6971583664166007 0.08153526235525865
vn -0.6515575267409115 -0.7124949826943461 -0.2604298158480512
vn 0.6515575267409115 0.7124949826943461 0.2604298158480512
vn -0.5464468929495175 -0.7259669558039811 -0.4175736728608728
vn 0.5464468929495175 0.7259669558039811 0.4175736728608728
vn -0.40409674737270235 -0.7366561418731763 -0.5422578237363928
vn 0.40409674737270235 0.7366561418731763 0.5422578237363928
vn -0.23420813353547548 -0.7438340844782328 -0.6259851475508488
vn 0.23420813353547548 0.7438340844782328 0.6259851475508488
vn -0.04835868904368695 -0.7470116561979191 -0.6630497890041275
vn 0.04835868904368695 0.7470116561979191 0.6630497890041275
vn 0.1407863637346395 -0.74597229299991 -0.6509259081207587
vn -0.1407863637346395 0.74597229299991 0.6509259081207587
vn 0.32033706057355277 -0.7407867681414216 -0.5904397782752138
vn -0.32033706057355277 0.7407867681414216 0.5904397782752138
vn 0.47805731452037403 -0.7318085725143536 -0.4857133076497617
vn -0.47805731452037403 0.7318085725143536 0.4857133076497617
usemtl material_0_0
f 1/1/1 2/2/2 3/3/3
f 2/2/2 1/1/1 4/4/4
f 2/2/2 4/4/4 5/5/5
f 5/5/5 4/4/4 6/6/6
f 5/5/5 6/6/6 7/7/7
f 7/7/7 6/6/6 8/8/8
f 7/7/7 8/8/8 9/9/9
f 9/9/9 8/8/8 10/10/10
f 9/9/9 10/10/10 11/11/11
f 11/11/11 10/10/10 12/12/12
f 11/11/11 12/12/12 13/13/13
f 13/13/13 12/12/12 14/14/14
f 13/13/13 14/14/14 15/15/15
f 15/15/15 14/14/14 16/16/16
f 15/15/15 16/16/16 17/17/17
f 17/17/17 16/16/16 18/18/18
f 17/17/17 18/18/18 19/19/19
f 19/19/19 18/18/18 20/20/20
f 19/19/19 20/20/20 21/21/21
f 21/21/21 20/20/20 22/22/22
f 21/21/21 22/22/22 23/23/23
f 23/23/23 22/22/22 24/24/24
f 25/24/25 26/22/26 27/23/27
f 27/23/27 26/22/26 28/21/28
f 26/22/26 29/20/29 28/21/28
f 28/21/28 29/20/29 30/19/30
f 29/20/29 31/18/31 30/19/30
f 30/19/30 31/18/31 32/17/32
f 31/18/31 33/16/33 32/17/32
f 32/17/32 33/16/33 34/15/34
f 33/16/33 35/14/35 34/15/34
f 34/15/34 35/14/35 36/13/36
f 35/14/35 37/12/37 36/13/36
f 36/13/36 37/12/37 38/11/38
f 37/12/37 39/10/39 38/11/38
f 38/11/38 39/10/39 40/9/40
f 39/10/39 41/8/41 40/9/40
f 40/9/40 41/8/41 42/7/42
f 41/8/41 43/6/43 42/7/42
f 42/7/42 43/6/43 44/5/44
f 43/6/43 45/4/45 44/5/44
f 44/5/44 45/4/45 46/2/46
f 45/4/45 47/1/47 46/2/46
f 48/3/48 46/2/46 47/1/47
f 49/25/49 5/26/5 50/27/50
f 5/26/5 49/25/49 2/28/2
f 46/28/46 51/25/51 44/26/44
f 52/27/52 44/26/44 51/25/51
f 49/29/49 3/30/3 2/31/2
f 3/30/3 49/29/49 53/32/53
f 54/32/54 51/29/51 48/30/48
f 46/31/46 48/30/48 51/29/51
f 55/33/55 3/34/3 53/35/53
f 3/34/3 55/33/55 1/36/1
f 47/36/47 56/33/56 48/34/48
f 54/35/54 48/34/48 56/33/56
f 57/37/57 1/38/1 55/39/55
f 1/38/1 57/37/57 4/40/4
f 45/40/45 58/37/58 47/38/47
f 56/39/56 47/38/47 58/37/58
f 59/41/59 4/42/4 57/43/57
f 4/42/4 59/41/59 6/44/6
f 43/44/43 60/41/60 45/42/45
f 58/43/58 45/42/45 60/41/60
f 8/45/8 59/46/59 61/47/61
f 59/46/59 8/45/8 6/48/6
f 43/48/43 41/45/41 60/46/60
f 62/47/62 60/46/60 41/45/41
f 10/49/10 61/50/61 63/51/63
f 61/50/61 10/49/10 8/52/8
f 41/52/41 39/49/39 62/50/62
f 64/51/64 62/50/62 39/49/39
f 12/53/12 63/54/63 65/55/65
f 63/54/63 12/53/12 10/56/10
f 39/56/39 37/53/37 64/54/64
f 66/55/66 64/54/64 37/53/37
f 14/57/14 65/58/65 67/59/67
f 65/58/65 14/57/14 12/60/12
f 37/60/37 35/57/35 66/58/66
f 68/59/68 66/58/66 35/57/35
f 16/61/16 67/62/67 69/63/69
f 67/62/67 16/61/16 14/64/14
f 35/64/35 33/61/33 68/62/68
f 70/63/70 68/62/68 33/61/33
f 18/65/18 69/66/69 71/67/71
f 69/66/69 18/65/18 16/68/16
f 33/68/33 31/65/31 70/66/70
f 72/67/72 70/66/70 31/65/31
f 18/69/18 73/70/73 20/71/20
f 73/70/73 18/69/18 71/72/71
f 72/72/72 31/69/31 74/70/74
f 29/71/29 74/70/74 31/69/31
f 20/73/20 75/74/75 22/75/22
f 75/74/75 20/73/20 73/76/73
f 74/76/74 29/73/29 76/74/76
f 26/75/26 76/74/76 29/73/29
f 24/77/24 75/78/75 77/79/77
f 75/78/75 24/77/24 22/80/22
f 26/80/26 25/77/25 76/78/76
f 78/79/78 76/78/76 25/77/25
f 23/81/23 77/82/77 79/83/79
f 77/82/77 23/81/23 24/84/24
f 25/84/25 27/81/27 78/82/78
f 80/83/80 78/82/78 27/81/27
f 23/85/23 81/86/81 21/87/21
f 81/86/81 23/85/23 79/88/79
f 80/88/80 27/85/27 82/86/82
f 28/87/28 82/86/82 27/85/27
f 21/89/21 83/90/83 19/91/19
f 83/90/83 21/89/21 81/92/81
f 82/92/82 28/89/28 84/90/84
f 30/91/30 84/90/84 28/89/28
f 17/93/17 83/94/83 85/95/85
f 83/94/83 17/93/17 19/96/19
f 30/96/30 32/93/32 84/94/84
f 86/95/86 84/94/84 32/93/32
f 15/97/15 85/98/85 87/99/87
f 85/98/85 15/97/15 17/100/17
f 32/100/32 34/97/34 86/98/86
f 88/99/88 86/98/86 34/97/34
f 13/101/13 87/102/87 89/103/89
f 87/102/87 13/101/13 15/104/15
f 34/104/34 36/101/36 88/102/88
f 90/103/90 88/102/88 36/101/36
f 91/105/91 13/106/13 89/107/89
f 13/106/13 91/105/91 11/108/11
f 38/108/38 92/105/92 36/106/36
f 90/107/90 36/106/36 92/105/92
f 9/109/9 91/110/91 93/111/93
f 91/110/91 9/109/9 11/112/11
f 38/112/38 40/109/40 92/110/92
f 94/111/94 92/110/92 40/109/40
f 7/113/7 93/114/93 95/115/95
f 93/114/93 7/113/7 9/116/9
f 40/116/40 42/113/42 94/114/94
f 96/115/96 94/114/94 42/113/42
f 50/117/50 7/118/7 95/119/95
f 7/118/7 50/117/50 5/120/5
f 44/120/44 52/117/52 42/118/42
f 96/119/96 42/118/42 52/117/52
