# SSTK version 0.8.0
# 5
mtllib original-5.mtl
o #ID46
v -0.562297 0.442337 -0.064369
v -0.565204 0.442161 -0.060376
v -0.564940 0.441754 -0.060263
v -0.562685 0.442933 -0.064534
v -0.558958 0.443595 -0.067681
v -0.559549 0.444503 -0.067933
v -0.566934 0.442240 -0.055742
v -0.566704 0.441886 -0.055644
v -0.555148 0.445442 -0.069975
v -0.556008 0.446764 -0.070341
v -0.551127 0.447753 -0.071093
v -0.552305 0.449562 -0.071594
vt 0.5849878 1.110522
vt 0.5777568 1.109715
vt 0.5779197 1.109067
vt 0.5847492 1.111472
vt 0.4953476 1.223235
vt 0.4882541 1.221858
vt 0.4886352 1.220956
vt 0.4947671 1.224609
vt 0.6294353 0.9813354
vt 0.6221174 0.981492
vt 0.6221581 0.9809126
vt 0.6293885 0.9820023
vt 0.3764036 1.291681
vt 0.3693325 1.29013
vt 0.3700745 1.288836
vt 0.3753237 1.293565
vt 0.2419321 1.299639
vt 0.2346801 1.298247
vt 0.2359127 1.29646
vt 0.2402455 1.302085
vn 0.5772680047337286 0.5445551694328864 0.6084581482359
vn 0.7171081376328303 0.5757676938476971 0.3927435316616666
vn 0.7161116165366845 0.5756640692133622 0.39470879402152914
vn -0.5772680047337286 -0.5445551694328864 -0.6084581482359
vn -0.7171081376328303 -0.5757676938476971 -0.3927435316616666
vn -0.7161116165366845 -0.5756640692133622 -0.39470879402152914
vn 0.5801740107635367 0.54545414669502 0.6048784101683241
vn -0.5801740107635367 -0.54545414669502 -0.6048784101683241
vn 0.3969261768579502 0.47604231240267925 0.7847504870512927
vn -0.3969261768579502 -0.47604231240267925 -0.7847504870512927
vn 0.4022245938800441 0.47835107625355777 0.7806379595722313
vn -0.4022245938800441 -0.47835107625355777 -0.7806379595722313
vn 0.7683186481930981 0.5770132800983877 0.27702369831628126
vn -0.7683186481930981 -0.5770132800983877 -0.27702369831628126
vn 0.18529691690620004 0.3727904141318993 0.9092262423161926
vn -0.18529691690620004 -0.3727904141318993 -0.9092262423161926
vn 0.19288868262556985 0.37683127247904014 0.9059757989023766
vn -0.19288868262556985 -0.37683127247904014 -0.9059757989023766
vn 0.08169253757161887 0.31538620647520926 0.9454405692957577
vn -0.08169253757161887 -0.31538620647520926 -0.9454405692957577
usemtl material_0_2
f 1/1/1 2/2/2 3/3/3
f 3/3/6 2/2/5 1/1/4
f 2/2/2 1/1/1 4/4/7
f 4/4/8 1/1/4 2/2/5
f 5/5/9 4/6/7 1/7/1
f 1/7/4 4/6/8 5/5/10
f 4/6/7 5/5/9 6/8/11
f 6/8/12 5/5/10 4/6/8
f 3/9/3 7/10/13 8/11/13
f 8/11/14 7/10/14 3/9/6
f 7/10/13 3/9/3 2/12/2
f 2/12/5 3/9/6 7/10/14
f 9/13/15 6/14/11 5/15/9
f 5/15/10 6/14/12 9/13/16
f 6/14/11 9/13/15 10/16/17
f 10/16/18 9/13/16 6/14/12
f 11/17/19 10/18/17 9/19/15
f 9/19/16 10/18/18 11/17/20
f 10/18/17 11/17/19 12/20/19
f 12/20/20 11/17/20 10/18/18
